<svg width="512" height="512" viewBox="0 0 512 512" fill="none" xmlns="http://www.w3.org/2000/svg">
  <defs>
    <linearGradient id="bg" x1="0" y1="0" x2="512" y2="512" gradientUnits="userSpaceOnUse">
      <stop offset="0" stop-color="#34d399"/>
      <stop offset="1" stop-color="#059669"/>
    </linearGradient>
    <linearGradient id="leaf" x1="256" y1="70" x2="256" y2="210" gradientUnits="userSpaceOnUse">
      <stop offset="0" stop-color="#10b981"/>
      <stop offset="1" stop-color="#047857"/>
    </linearGradient>
  </defs>

  <!-- Фон-плитка -->
  <rect width="512" height="512" rx="116" fill="url(#bg)"/>

  <!-- Росток над монетой -->
  <path d="M256 208 C 250 176 250 148 256 118" stroke="url(#leaf)" stroke-width="22" stroke-linecap="round"/>
  <!-- Левый лист -->
  <path d="M254 176 C 196 178 160 132 172 78 C 230 82 262 124 254 176 Z" fill="url(#leaf)"/>
  <!-- Правый лист -->
  <path d="M258 168 C 316 170 352 124 340 70 C 282 74 250 116 258 168 Z" fill="url(#leaf)"/>

  <!-- Монета -->
  <circle cx="256" cy="336" r="150" fill="#ffffff"/>
  <circle cx="256" cy="336" r="126" fill="none" stroke="#059669" stroke-opacity="0.16" stroke-width="8"/>

  <!-- Стрелка роста (валюто-нейтрально) -->
  <g stroke="#059669" stroke-width="26" stroke-linecap="round" stroke-linejoin="round" fill="none">
    <path d="M196 382 L312 298"/>
    <path d="M312 298 L272 298"/>
    <path d="M312 298 L312 338"/>
  </g>
</svg>
